<svg xmlns="http://www.w3.org/2000/svg" viewBox="0 0 418.52 333.48"><defs><style>.cls-1{fill:#ebf2f8;}.cls-1,.cls-10,.cls-13,.cls-14,.cls-16,.cls-18,.cls-19,.cls-2,.cls-20,.cls-21,.cls-22,.cls-23,.cls-24,.cls-25,.cls-26,.cls-27,.cls-28,.cls-29,.cls-3,.cls-30,.cls-31,.cls-32,.cls-34,.cls-5,.cls-6,.cls-7,.cls-8{fill-rule:evenodd;}.cls-2{fill:#4bb89f;}.cls-3{fill:#7fc8b8;}.cls-4,.cls-5{fill:#a36e4e;}.cls-6{fill:#794c34;}.cls-7,.cls-9{fill:#dee7f4;}.cls-12,.cls-8{fill:#fff;}.cls-10{fill:#7385a1;}.cls-11,.cls-20{fill:#8397b5;}.cls-13{fill:#252626;}.cls-14,.cls-15{fill:#0c0e0e;}.cls-16,.cls-17{fill:#d84f50;}.cls-18{fill:#a62a34;}.cls-19{fill:#de7272;}.cls-21{fill:#f4ad85;}.cls-22{fill:#f19879;}.cls-23{fill:#bec7d4;}.cls-24{fill:#e8685b;}.cls-25{fill:#f6bb98;}.cls-27{fill:#d7e0ec;}.cls-28{fill:#ef8871;}.cls-29{fill:#d64341;}.cls-30{fill:#f8caae;}.cls-31{fill:#1c1d1d;}.cls-32{fill:#be865e;}.cls-33{fill:#915e40;}.cls-34{fill:#d49d80;}</style></defs><g id="Layer_2" data-name="Layer 2"><g id="OBJECTS"><path class="cls-1" d="M208.77,32a5.41,5.41,0,1,0,1.58,3.82A5.4,5.4,0,0,0,208.77,32Zm-1.17-5.36a9.52,9.52,0,0,1,4,2.3A.32.32,0,0,0,212,29l2.51-1.45h0a.61.61,0,0,1,.46,0,.59.59,0,0,1,.37.29v0l1.77,3.06a.59.59,0,0,1,.06.47.64.64,0,0,1-.29.38h0l-2.49,1.44a.31.31,0,0,0-.15.36h0a10.19,10.19,0,0,1,.21,1.15,10.79,10.79,0,0,1,.07,1.16,11,11,0,0,1-.07,1.16,11.08,11.08,0,0,1-.21,1.15.33.33,0,0,0,.17.37L216.88,40h0a.61.61,0,0,1,.29.38.6.6,0,0,1-.06.47l-1.78,3.08h0a.59.59,0,0,1-.37.29.67.67,0,0,1-.48-.06h0L212,42.68a.32.32,0,0,0-.39,0,10.18,10.18,0,0,1-1.86,1.4,9.41,9.41,0,0,1-2.14.9.35.35,0,0,0-.24.32v2.9a.61.61,0,0,1-.62.62h-3.55a.63.63,0,0,1-.44-.18.6.6,0,0,1-.19-.44v-2.9a.33.33,0,0,0-.25-.32,9.72,9.72,0,0,1-2.12-.9,9.85,9.85,0,0,1-1.86-1.4.32.32,0,0,0-.41,0l-2.5,1.44a.63.63,0,0,1-.85-.23v0l-1.76-3.06h0a.56.56,0,0,1-.06-.47A.6.6,0,0,1,193,40l2.51-1.45a.33.33,0,0,0,.16-.36h0a11.08,11.08,0,0,1-.21-1.15,8.82,8.82,0,0,1-.07-1.16,8.71,8.71,0,0,1,.07-1.16,10.19,10.19,0,0,1,.21-1.15.32.32,0,0,0-.18-.37L193,31.73a.62.62,0,0,1-.28-.38.56.56,0,0,1,.06-.47v0l1.76-3.06h0a.63.63,0,0,1,.85-.23h0L197.92,29a.33.33,0,0,0,.4-.05,9.36,9.36,0,0,1,4-2.3.34.34,0,0,0,.24-.32v-2.9a.6.6,0,0,1,.19-.44.63.63,0,0,1,.44-.18h3.55a.61.61,0,0,1,.62.62v2.9A.33.33,0,0,0,207.6,26.67Z"/><path class="cls-1" d="M167,35.27a11.84,11.84,0,0,0-3.8-2.54,11.7,11.7,0,0,0-8.95,0,11.84,11.84,0,0,0-3.8,2.54,12,12,0,0,0-2.54,3.8,11.82,11.82,0,0,0,0,9,11.72,11.72,0,0,0,6.34,6.34,11.7,11.7,0,0,0,8.95,0A11.72,11.72,0,0,0,169.57,48a11.7,11.7,0,0,0,0-9,12,12,0,0,0-2.54-3.8Zm-4.21-1.54a10.74,10.74,0,0,1,5.75,5.75,10.73,10.73,0,0,1,0,8.13,10.74,10.74,0,0,1-5.75,5.75,10.7,10.7,0,0,1-8.12,0,10.72,10.72,0,0,1-5.76-5.75,10.73,10.73,0,0,1,0-8.13,10.74,10.74,0,0,1,5.75-5.75,10.73,10.73,0,0,1,8.13,0Zm1.29-8.61a19.18,19.18,0,0,1,2.16.77,19.94,19.94,0,0,1,2.07,1,20.65,20.65,0,0,1,1.95,1.3,18.52,18.52,0,0,1,1.78,1.52,1.23,1.23,0,0,0,.7.33,1.2,1.2,0,0,0,.76-.16c1.72-1,3.53-2,5.21-3a.79.79,0,0,1,.26-.08.88.88,0,0,1,.28,0,.84.84,0,0,1,.27.13.82.82,0,0,1,.19.22c1.25,1.89,2.5,4.34,3.67,6.35a1,1,0,0,1,.09.27.93.93,0,0,1,0,.29.84.84,0,0,1-.13.27.82.82,0,0,1-.22.19c-1.55,1-3.54,2-5.18,3a1.19,1.19,0,0,0-.51.58,1.21,1.21,0,0,0-.08.25l-.11,0,.12.48c.1.38.18.76.25,1.14s.13.75.17,1.15.09.78.11,1.17,0,.77,0,1.17,0,.81,0,1.18-.06.77-.11,1.16-.1.79-.17,1.16-.15.76-.25,1.14a1.23,1.23,0,0,0,.64,1.38l4.58,2.65h0l.54.31a.82.82,0,0,1,.22.19.91.91,0,0,1,.13.26,1,1,0,0,1,0,.3,1,1,0,0,1-.09.27L180,59.42h0l-.27.47a.82.82,0,0,1-.19.22.84.84,0,0,1-.27.13,1,1,0,0,1-.29,0,.72.72,0,0,1-.27-.09c-1.64-1-3.5-2-5.19-3a1.27,1.27,0,0,0-.76-.15,1.2,1.2,0,0,0-.7.33h0a19.83,19.83,0,0,1-1.78,1.52,20.54,20.54,0,0,1-1.95,1.29,19.43,19.43,0,0,1-2.09,1.05,17.72,17.72,0,0,1-2.19.77,1.24,1.24,0,0,0-.64.44,1.22,1.22,0,0,0-.25.74v6a.64.64,0,0,1-.06.28.82.82,0,0,1-.16.25,1,1,0,0,1-.24.16.88.88,0,0,1-.29,0h-7.33a.88.88,0,0,1-.29,0,1,1,0,0,1-.24-.16.82.82,0,0,1-.16-.25.64.64,0,0,1-.06-.28v-6a1.21,1.21,0,0,0-.26-.76,1.23,1.23,0,0,0-.68-.43,19.18,19.18,0,0,1-2.16-.77,18.2,18.2,0,0,1-2.07-1,20.54,20.54,0,0,1-1.95-1.29,19.83,19.83,0,0,1-1.78-1.52,1.26,1.26,0,0,0-.74-.34,1.32,1.32,0,0,0-.79.2l-5.11,3a.71.71,0,0,1-.28.09,1,1,0,0,1-.29,0,.71.71,0,0,1-.26-.13.85.85,0,0,1-.2-.22c-1.21-2.12-2.45-4.23-3.66-6.35a1,1,0,0,1-.1-.27.77.77,0,0,1,0-.3.88.88,0,0,1,.12-.26.67.67,0,0,1,.22-.19l5.18-3a1.19,1.19,0,0,0,.51-.58,1.18,1.18,0,0,0,.07-.2l.13,0-.13-.55c-.1-.38-.18-.76-.25-1.14s-.12-.75-.17-1.16-.09-.78-.11-1.16,0-.77,0-1.18,0-.8,0-1.17.06-.77.11-1.17.1-.79.17-1.15.15-.76.25-1.14a1.25,1.25,0,0,0-.08-.81,1.26,1.26,0,0,0-.55-.57l-5.13-3a.67.67,0,0,1-.22-.19.83.83,0,0,1-.12-.27.7.7,0,0,1,0-.29,1,1,0,0,1,.1-.27c1.25-1.86,2.5-4.35,3.66-6.35A.85.85,0,0,1,138,27a.71.71,0,0,1,.26-.13,1,1,0,0,1,.29,0,.66.66,0,0,1,.27.09l5.19,3a1.19,1.19,0,0,0,.77.16,1.33,1.33,0,0,0,.71-.35,19.59,19.59,0,0,1,1.77-1.51c.62-.46,1.27-.89,1.94-1.29a21.4,21.4,0,0,1,2.09-1,17.72,17.72,0,0,1,2.19-.77,1.24,1.24,0,0,0,.64-.44,1.22,1.22,0,0,0,.25-.74v-6a.67.67,0,0,1,.06-.28.91.91,0,0,1,.16-.24.78.78,0,0,1,.24-.16.68.68,0,0,1,.29-.06h7.33a.68.68,0,0,1,.29.06.75.75,0,0,1,.46.68v6a1.27,1.27,0,0,0,.26.76,1.23,1.23,0,0,0,.68.43Zm2.58-.23a21.33,21.33,0,0,1,2.19,1.1,19.3,19.3,0,0,1,2.06,1.36A20.71,20.71,0,0,1,172.82,29l.08,0,.09,0,5.23-3a1.73,1.73,0,0,1,1.34-.15,1.73,1.73,0,0,1,.64.31,1.71,1.71,0,0,1,.47.53c1.26,2.05,2.46,4.27,3.67,6.36a1.84,1.84,0,0,1,.23.67,1.85,1.85,0,0,1-.36,1.35,1.75,1.75,0,0,1-.54.47c-1.66,1-3.47,2-5.18,3a.2.2,0,0,0-.06.07.14.14,0,0,0,0,.09l.11.49h0c.05.23.1.47.14.71.08.42.14.83.19,1.23s.08.8.11,1.22,0,.84,0,1.24,0,.82,0,1.24-.06.83-.11,1.23-.11.81-.19,1.22-.16.82-.26,1.2a.31.31,0,0,0,0,.1.23.23,0,0,0,.07.07c1.9,1,3.83,2.21,5.71,3.3l-.06.08.06.07a2.1,2.1,0,0,1,.31.64,1.88,1.88,0,0,1,0,.71,1.83,1.83,0,0,1-.23.68l-3.94,6.83-.08,0-.12.1a1.9,1.9,0,0,1-.64.31,1.87,1.87,0,0,1-.71,0,1.84,1.84,0,0,1-.66-.22c-1.72-.91-3.5-2-5.2-3a.13.13,0,0,0-.09,0l-.08,0a22.17,22.17,0,0,1-1.88,1.61,19.3,19.3,0,0,1-2.06,1.36,20.52,20.52,0,0,1-2.2,1.1,18.92,18.92,0,0,1-2.33.82.18.18,0,0,0-.07,0,.16.16,0,0,0,0,.09v6a1.82,1.82,0,0,1-.14.7,1.71,1.71,0,0,1-.4.59,1.81,1.81,0,0,1-.59.4,1.78,1.78,0,0,1-.7.14h-7.33a1.8,1.8,0,0,1-1.29-.54,1.71,1.71,0,0,1-.4-.59,1.82,1.82,0,0,1-.14-.7v-6a.14.14,0,0,0,0-.09l-.08,0h0a19.11,19.11,0,0,1-2.31-.82,19.41,19.41,0,0,1-2.19-1.09,20.37,20.37,0,0,1-2.06-1.36,20.71,20.71,0,0,1-1.88-1.61.15.15,0,0,0-.09,0l-.09,0-5.18,3a1.67,1.67,0,0,1-.67.23,1.88,1.88,0,0,1-1.35-.36,1.78,1.78,0,0,1-.46-.52c-1.36-2.19-2.65-4.58-3.95-6.83l.07,0,0-.17a1.88,1.88,0,0,1,.05-.71,1.92,1.92,0,0,1,.32-.64,1.82,1.82,0,0,1,.53-.46l5.18-3a.12.12,0,0,0,.06-.06.34.34,0,0,0,0-.1l-.14-.55h0c-.05-.21-.09-.43-.13-.65-.08-.41-.14-.82-.19-1.22s-.09-.8-.11-1.23,0-.83,0-1.24,0-.81,0-1.23.06-.84.11-1.24.11-.8.19-1.22.16-.81.26-1.2a.28.28,0,0,0,0-.09.16.16,0,0,0-.07-.07l-5.17-3a1.64,1.64,0,0,1-.54-.47,2,2,0,0,1-.31-.63,1.88,1.88,0,0,1-.05-.71,1.82,1.82,0,0,1,.22-.67c1.24-2.28,2.65-4.58,4-6.84l.08,0,.12-.1a1.73,1.73,0,0,1,.64-.31,1.7,1.7,0,0,1,.71,0,1.82,1.82,0,0,1,.67.22l.39.22h0L144.52,29a.15.15,0,0,0,.09,0l.08,0,0,0a19.12,19.12,0,0,1,1.87-1.59,19.67,19.67,0,0,1,2-1.36,20.52,20.52,0,0,1,2.2-1.1,20.78,20.78,0,0,1,2.33-.83s.05,0,.07,0a.11.11,0,0,0,0-.08v-6a1.77,1.77,0,0,1,.14-.69,1.62,1.62,0,0,1,.4-.59,1.8,1.8,0,0,1,1.29-.54h7.33a1.78,1.78,0,0,1,.7.14,1.86,1.86,0,0,1,1.13,1.68v6a.16.16,0,0,0,0,.09l.08.05h0A23.29,23.29,0,0,1,166.69,24.89Z"/><path class="cls-2" d="M312.57,292.05l2.77,3.47H328l2.77-3.47C340.68,265.18,302.61,265.18,312.57,292.05Z"/><path class="cls-3" d="M316.16,292.05l1.67,3.47h7.62l1.68-3.47C333.15,265.18,310.14,265.18,316.16,292.05Z"/><rect class="cls-4" x="309.47" y="289.82" width="24.34" height="8.9" rx="1.36"/><polygon class="cls-5" points="328.86 294.85 314.43 294.85 310.67 298.72 313.74 312.22 321.64 312.22 329.55 312.22 332.62 298.72 328.86 294.85"/><polygon class="cls-6" points="310.67 298.72 311.3 301.38 331.99 301.38 332.62 298.72 310.67 298.72"/><path class="cls-2" d="M328.56,275.81l-.78,1.79,2.57,4.9,1.92.37C344.76,281.26,337,266.45,328.56,275.81Z"/><path class="cls-3" d="M333.83,280.55c6.44-3,3.75-8.15-2.32-4.6C326.38,279,328.48,283,333.83,280.55Z"/><path class="cls-2" d="M315.72,275.41l.25,1.45L313.19,280l-1.47-.08C302.87,276.47,311.25,267,315.72,275.41Z"/><path class="cls-3" d="M311,277.93c-4.17-3.34-1.26-6.65,2.54-2.95C316.75,278.11,314.47,280.7,311,277.93Z"/><path class="cls-7" d="M329.78,90a13.17,13.17,0,0,0-12.32,8.55,6.52,6.52,0,0,0-1.48-.16,6.79,6.79,0,0,0-6.32,4.3,6.8,6.8,0,0,0-2.22-.36,7,7,0,0,0,0,14h49.11a8.49,8.49,0,1,0-2.68-16.54A8.26,8.26,0,0,0,341,96.31,13.13,13.13,0,0,0,329.78,90Z"/><path class="cls-8" d="M311.74,82.37a17,17,0,0,1,0,33.9H277.26A10.94,10.94,0,1,1,280.72,95a10.65,10.65,0,0,1,16.52-4.41A16.92,16.92,0,0,1,311.74,82.37Z"/><rect class="cls-9" x="278.11" y="120.41" width="4.47" height="4.47" rx="0.89"/><rect class="cls-9" x="287.27" y="120.41" width="4.47" height="4.47" rx="0.89"/><rect class="cls-9" x="296.44" y="120.41" width="4.47" height="4.47" rx="0.89"/><rect class="cls-9" x="305.6" y="120.41" width="4.47" height="4.47" rx="0.89"/><path class="cls-8" d="M319.49,222.17H318.2a.79.79,0,0,0-.79.79h0a.8.8,0,0,0,.79.79h1.29a.79.79,0,0,0,.79-.79h0A.79.79,0,0,0,319.49,222.17Z"/><path class="cls-8" d="M338.93,234.41h8.32a.79.79,0,0,1,.79.79h0a.79.79,0,0,1-.79.8h-8.32a.79.79,0,0,1-.79-.8h0A.79.79,0,0,1,338.93,234.41Z"/><path class="cls-8" d="M331.23,240.08H324.3a.79.79,0,0,0-.79.79h0a.79.79,0,0,0,.79.79h6.93a.79.79,0,0,0,.79-.79h0A.79.79,0,0,0,331.23,240.08Z"/><path class="cls-8" d="M326.14,250.75H324.3a.79.79,0,0,0-.79.79h0a.79.79,0,0,0,.79.79h1.84a.79.79,0,0,0,.79-.79h0A.79.79,0,0,0,326.14,250.75Z"/><path class="cls-8" d="M386.54,262.08H365.9a.79.79,0,0,0-.79.79h0a.8.8,0,0,0,.79.79h20.64a.8.8,0,0,0,.8-.79h0A.79.79,0,0,0,386.54,262.08Z"/><path class="cls-8" d="M373,267.75h8.33a.79.79,0,0,1,.79.79h0a.8.8,0,0,1-.79.79H373a.8.8,0,0,1-.79-.79h0A.79.79,0,0,1,373,267.75Z"/><path class="cls-8" d="M365.32,273.41h-6.94a.8.8,0,0,0-.79.79h0a.8.8,0,0,0,.79.8h6.94a.8.8,0,0,0,.79-.8h0A.8.8,0,0,0,365.32,273.41Z"/><path class="cls-8" d="M360.23,284.08h-1.85a.8.8,0,0,0-.79.79h0a.79.79,0,0,0,.79.79h1.85a.79.79,0,0,0,.79-.79h0A.8.8,0,0,0,360.23,284.08Z"/><path class="cls-8" d="M398.56,295.41H377.92a.8.8,0,0,0-.79.8h0a.8.8,0,0,0,.79.79h20.64a.8.8,0,0,0,.8-.79h0A.8.8,0,0,0,398.56,295.41Z"/><path class="cls-10" d="M304.92,222.17H294.17a.79.79,0,0,0-.79.79h0a.79.79,0,0,0,.79.79h10.75a.79.79,0,0,0,.79-.79h0A.79.79,0,0,0,304.92,222.17Z"/><path class="cls-10" d="M351,227.5h-21.3a.8.8,0,0,0-.79.79h0a.79.79,0,0,0,.79.79H351a.79.79,0,0,0,.79-.79h0A.8.8,0,0,0,351,227.5Z"/><path class="cls-10" d="M299.14,227.5h24a.8.8,0,0,1,.79.79h0a.79.79,0,0,1-.79.79h-24a.79.79,0,0,1-.79-.79h0A.8.8,0,0,1,299.14,227.5Z"/><path class="cls-10" d="M314.12,222.17H293.83a.79.79,0,0,0-.79.79h0a.8.8,0,0,0,.79.79h20.29a.8.8,0,0,0,.79-.79h0A.79.79,0,0,0,314.12,222.17Z"/><path class="cls-10" d="M381.42,234.41H350.78a.8.8,0,0,0-.79.79h0a.8.8,0,0,0,.79.8h30.64a.79.79,0,0,0,.79-.8h0A.79.79,0,0,0,381.42,234.41Z"/><path class="cls-10" d="M335.77,234.41H305.13a.8.8,0,0,0-.8.79h0a.8.8,0,0,0,.8.8h30.64a.8.8,0,0,0,.79-.8h0A.8.8,0,0,0,335.77,234.41Z"/><path class="cls-10" d="M319.93,240.08H309a.8.8,0,0,0-.8.79h0a.79.79,0,0,0,.8.79h10.91a.79.79,0,0,0,.8-.79h0A.8.8,0,0,0,319.93,240.08Z"/><path class="cls-10" d="M383.65,240.08H335.13a.8.8,0,0,0-.79.79h0a.79.79,0,0,0,.79.79h48.52a.79.79,0,0,0,.79-.79h0A.8.8,0,0,0,383.65,240.08Z"/><path class="cls-10" d="M357.53,245.48H309a.8.8,0,0,0-.8.79h0a.79.79,0,0,0,.8.79h48.51a.79.79,0,0,0,.79-.79h0A.79.79,0,0,0,357.53,245.48Z"/><path class="cls-10" d="M319.93,250.75H309a.8.8,0,0,0-.8.79h0a.8.8,0,0,0,.8.79h10.91a.8.8,0,0,0,.8-.79h0A.8.8,0,0,0,319.93,250.75Z"/><path class="cls-10" d="M364.48,250.75H330.31a.8.8,0,0,0-.79.79h0a.8.8,0,0,0,.79.79h34.17a.8.8,0,0,0,.79-.79h0A.8.8,0,0,0,364.48,250.75Z"/><path class="cls-10" d="M372.32,256.41h-53.7a.79.79,0,0,0-.79.8h0a.79.79,0,0,0,.79.79h53.7a.8.8,0,0,0,.79-.79h0A.8.8,0,0,0,372.32,256.41Z"/><path class="cls-10" d="M360.8,262.08H325.9a.79.79,0,0,0-.79.79h0a.79.79,0,0,0,.79.79h34.9a.79.79,0,0,0,.79-.79h0A.79.79,0,0,0,360.8,262.08Z"/><path class="cls-10" d="M415.51,267.75H384.87a.79.79,0,0,0-.8.79h0a.8.8,0,0,0,.8.79h30.64a.79.79,0,0,0,.79-.79h0A.79.79,0,0,0,415.51,267.75Z"/><path class="cls-10" d="M369.86,267.75H339.21a.79.79,0,0,0-.79.79h0a.8.8,0,0,0,.79.79h30.65a.8.8,0,0,0,.79-.79h0A.79.79,0,0,0,369.86,267.75Z"/><path class="cls-10" d="M354,273.41H343.1a.8.8,0,0,0-.79.79h0a.8.8,0,0,0,.79.8H354a.79.79,0,0,0,.79-.8h0A.79.79,0,0,0,354,273.41Z"/><path class="cls-10" d="M417.73,273.41H369.22a.79.79,0,0,0-.79.79h0a.79.79,0,0,0,.79.8h48.51a.79.79,0,0,0,.79-.8h0A.79.79,0,0,0,417.73,273.41Z"/><path class="cls-10" d="M391.62,278.81H343.1a.8.8,0,0,0-.79.79h0a.79.79,0,0,0,.79.79h48.52a.79.79,0,0,0,.79-.79h0A.8.8,0,0,0,391.62,278.81Z"/><path class="cls-10" d="M354,284.08H343.1a.8.8,0,0,0-.79.79h0a.79.79,0,0,0,.79.79H354a.79.79,0,0,0,.79-.79h0A.79.79,0,0,0,354,284.08Z"/><path class="cls-10" d="M398.56,284.08H364.4a.8.8,0,0,0-.79.79h0a.79.79,0,0,0,.79.79h34.16a.79.79,0,0,0,.8-.79h0A.8.8,0,0,0,398.56,284.08Z"/><path class="cls-10" d="M391.62,289.75h-53.7a.79.79,0,0,0-.79.79h0a.79.79,0,0,0,.79.79h53.7a.8.8,0,0,0,.79-.79h0A.79.79,0,0,0,391.62,289.75Z"/><path class="cls-10" d="M372.82,295.41h-34.9a.79.79,0,0,0-.79.8h0a.79.79,0,0,0,.79.79h34.9a.79.79,0,0,0,.79-.79h0A.79.79,0,0,0,372.82,295.41Z"/><path class="cls-8" d="M26.11,147.63l-8-3.52V143l8-4v1.93l-5.49,2.54,5.49,2.26v1.92ZM29,145.36v-.59a2.61,2.61,0,0,1,.33-1.34,4.3,4.3,0,0,1,1.21-1.22,4.85,4.85,0,0,0,1.11-1,1.43,1.43,0,0,0,.27-.85.91.91,0,0,0-.39-.79,1.84,1.84,0,0,0-1.07-.27,6.22,6.22,0,0,0-2.75.78l-.87-1.75a7.63,7.63,0,0,1,3.79-1,4,4,0,0,1,2.63.8,2.59,2.59,0,0,1,1,2.12,2.87,2.87,0,0,1-.4,1.52,5.67,5.67,0,0,1-1.53,1.44,4.78,4.78,0,0,0-1,.87,1.33,1.33,0,0,0-.21.78v.48Zm-.25,2.75a1.35,1.35,0,0,1,.36-1,1.46,1.46,0,0,1,1.05-.35,1.39,1.39,0,0,1,1,.36,1.31,1.31,0,0,1,.37,1,1.38,1.38,0,0,1-.37,1,1.69,1.69,0,0,1-2.07,0,1.34,1.34,0,0,1-.37-1ZM38.63,143h.82a2.71,2.71,0,0,0,1.71-.45,1.56,1.56,0,0,0,.58-1.32,1.63,1.63,0,0,0-.48-1.3,2.3,2.3,0,0,0-1.5-.41H38.63V143Zm5.62-1.86a3.6,3.6,0,0,1-1.19,2.9,5,5,0,0,1-3.36,1H38.63v4.18H36.14V137.52h3.75a5,5,0,0,1,3.25.92,3.34,3.34,0,0,1,1.11,2.74Zm11.83,8.08H53.6v-5.07H49v5.07H46.47V137.52H49v4.6H53.6v-4.6h2.48v11.74ZM61.54,143h.82a2.71,2.71,0,0,0,1.71-.45,1.55,1.55,0,0,0,.57-1.32,1.63,1.63,0,0,0-.47-1.3,2.3,2.3,0,0,0-1.5-.41H61.54V143Zm5.62-1.86a3.6,3.6,0,0,1-1.19,2.9,5,5,0,0,1-3.36,1H61.54v4.18H59.05V137.52H62.8a5,5,0,0,1,3.25.92,3.34,3.34,0,0,1,1.11,2.74Zm3,4.18v-.59a2.71,2.71,0,0,1,.32-1.34,4.3,4.3,0,0,1,1.21-1.22,4.85,4.85,0,0,0,1.11-1,1.43,1.43,0,0,0,.27-.85.91.91,0,0,0-.39-.79,1.82,1.82,0,0,0-1.07-.27,6.25,6.25,0,0,0-2.75.78L68,138.36a7.64,7.64,0,0,1,3.8-1,4,4,0,0,1,2.62.8,2.59,2.59,0,0,1,1,2.12,2.78,2.78,0,0,1-.4,1.52,5.67,5.67,0,0,1-1.53,1.44,4.78,4.78,0,0,0-1,.87,1.33,1.33,0,0,0-.21.78v.48Zm-.26,2.75a1.35,1.35,0,0,1,.36-1,1.46,1.46,0,0,1,1-.35,1.39,1.39,0,0,1,1,.36,1.31,1.31,0,0,1,.37,1,1.38,1.38,0,0,1-.37,1,1.69,1.69,0,0,1-2.07,0,1.34,1.34,0,0,1-.37-1Zm6.59-2.4,5.49-2.26-5.49-2.54V139l8,4v1.15l-8,3.52Z"/><rect class="cls-11" x="14.81" y="88.71" width="76.68" height="42.55" rx="3.6"/><rect class="cls-12" x="12.94" y="86.8" width="76.68" height="42.55" rx="3.6"/><path class="cls-13" d="M16.54,86.8H86a3.61,3.61,0,0,1,3.6,3.6v5a1,1,0,0,1-1,1H14a1,1,0,0,1-1-1v-5A3.61,3.61,0,0,1,16.54,86.8Z"/><path class="cls-14" d="M18.77,100.4H38.25a.75.75,0,0,1,.74.75h0a.75.75,0,0,1-.74.75H18.77a.76.76,0,0,1-.75-.75h0A.76.76,0,0,1,18.77,100.4Z"/><rect class="cls-15" x="28.8" y="103.7" width="10.19" height="1.5" rx="0.75"/><rect class="cls-15" x="25" y="103.7" width="2.19" height="1.5" rx="0.75"/><rect class="cls-15" x="18.02" y="103.7" width="5.86" height="1.5" rx="0.75"/><path class="cls-14" d="M18.77,107.62H38.25a.74.74,0,0,1,.74.75h0a.74.74,0,0,1-.74.74H18.77a.75.75,0,0,1-.75-.74h0A.75.75,0,0,1,18.77,107.62Z"/><path class="cls-14" d="M18.77,110.92h8.7a.76.76,0,0,1,.75.75h0a.76.76,0,0,1-.75.75h-8.7a.76.76,0,0,1-.75-.75h0A.76.76,0,0,1,18.77,110.92Z"/><path class="cls-14" d="M31.27,110.92h-.69a.75.75,0,0,0-.75.75h0a.75.75,0,0,0,.75.75h.69a.75.75,0,0,0,.74-.75h0A.75.75,0,0,0,31.27,110.92Z"/><path class="cls-14" d="M38.25,110.92H33.89a.76.76,0,0,0-.75.75h0a.76.76,0,0,0,.75.75h4.36a.75.75,0,0,0,.74-.75h0A.75.75,0,0,0,38.25,110.92Z"/><path class="cls-14" d="M18.77,114.84H38.25a.74.74,0,0,1,.74.75h0a.74.74,0,0,1-.74.74H18.77a.75.75,0,0,1-.75-.74h0A.75.75,0,0,1,18.77,114.84Z"/><rect class="cls-15" x="28.8" y="118.14" width="10.19" height="1.5" rx="0.75"/><rect class="cls-15" x="25" y="118.14" width="2.19" height="1.5" rx="0.75"/><rect class="cls-15" x="18.02" y="118.14" width="5.86" height="1.5" rx="0.75"/><path class="cls-14" d="M18.77,122.06H38.25a.74.74,0,0,1,.74.74h0a.74.74,0,0,1-.74.75H18.77a.75.75,0,0,1-.75-.75h0A.75.75,0,0,1,18.77,122.06Z"/><path class="cls-16" d="M50.71,100.4H83.66a.75.75,0,0,1,.74.75h0a.75.75,0,0,1-.74.75H50.71a.76.76,0,0,1-.75-.75h0A.76.76,0,0,1,50.71,100.4Z"/><rect class="cls-17" x="67.66" y="103.7" width="16.75" height="1.5" rx="0.75"/><rect class="cls-17" x="61.42" y="103.7" width="3.59" height="1.5" rx="0.75"/><rect class="cls-17" x="49.96" y="103.7" width="9.62" height="1.5" rx="0.75"/><path class="cls-16" d="M50.71,107.62H83.66a.74.74,0,0,1,.74.75h0a.74.74,0,0,1-.74.74H50.71a.75.75,0,0,1-.75-.74h0A.75.75,0,0,1,50.71,107.62Z"/><path class="cls-16" d="M50.71,110.92H66a.76.76,0,0,1,.75.75h0a.76.76,0,0,1-.75.75H50.71a.76.76,0,0,1-.75-.75h0A.76.76,0,0,1,50.71,110.92Z"/><path class="cls-16" d="M72.19,110.92H70.1a.75.75,0,0,0-.75.75h0a.75.75,0,0,0,.75.75h2.09a.76.76,0,0,0,.75-.75h0A.76.76,0,0,0,72.19,110.92Z"/><path class="cls-16" d="M83.66,110.92H75.54a.76.76,0,0,0-.75.75h0a.76.76,0,0,0,.75.75h8.12a.75.75,0,0,0,.74-.75h0A.75.75,0,0,0,83.66,110.92Z"/><path class="cls-16" d="M50.71,114.84H83.66a.74.74,0,0,1,.74.75h0a.74.74,0,0,1-.74.74H50.71a.75.75,0,0,1-.75-.74h0A.75.75,0,0,1,50.71,114.84Z"/><rect class="cls-17" x="67.66" y="118.14" width="16.75" height="1.5" rx="0.75"/><rect class="cls-17" x="61.42" y="118.14" width="3.59" height="1.5" rx="0.75"/><rect class="cls-17" x="49.96" y="118.14" width="9.62" height="1.5" rx="0.75"/><path class="cls-16" d="M50.71,122.06H83.66a.74.74,0,0,1,.74.74h0a.74.74,0,0,1-.74.75H50.71a.75.75,0,0,1-.75-.75h0A.75.75,0,0,1,50.71,122.06Z"/><path class="cls-8" d="M71.13,93.32a1.73,1.73,0,1,0-1.73-1.73A1.74,1.74,0,0,0,71.13,93.32Z"/><path class="cls-8" d="M77.37,93.32a1.73,1.73,0,1,0-1.73-1.73A1.74,1.74,0,0,0,77.37,93.32Z"/><path class="cls-8" d="M83.61,93.32a1.73,1.73,0,1,0-1.73-1.73A1.74,1.74,0,0,0,83.61,93.32Z"/><rect class="cls-9" x="65.94" y="50.26" width="4.47" height="4.47" rx="0.89"/><rect class="cls-9" x="75.1" y="50.26" width="4.47" height="4.47" rx="0.89"/><rect class="cls-9" x="84.27" y="50.26" width="4.47" height="4.47" rx="0.89"/><rect class="cls-9" x="93.43" y="50.26" width="4.47" height="4.47" rx="0.89"/><rect class="cls-9" x="6.95" y="300.81" width="4.47" height="4.47" rx="0.89"/><rect class="cls-9" x="16.11" y="300.81" width="4.47" height="4.47" rx="0.89"/><rect class="cls-9" x="25.27" y="300.81" width="4.47" height="4.47" rx="0.89"/><rect class="cls-9" x="34.43" y="300.81" width="4.47" height="4.47" rx="0.89"/><path class="cls-18" d="M106.91,280.62a10.69,10.69,0,1,1-7.55,3.13,10.65,10.65,0,0,1,7.55-3.13Zm4.61,6.08a6.51,6.51,0,1,0,1.91,4.6A6.48,6.48,0,0,0,111.52,286.7Z"/><path class="cls-16" d="M89.91,312.22h0a16.8,16.8,0,0,0,16.75-16.75V278a1.48,1.48,0,0,0-1.48-1.48H74.64A1.48,1.48,0,0,0,73.16,278v17.46A16.8,16.8,0,0,0,89.91,312.22Z"/><path class="cls-18" d="M100.92,293.37a16.8,16.8,0,0,1-.8,5.14A16.5,16.5,0,0,1,99,301.14a17,17,0,0,1-8.42,7.71,16.7,16.7,0,0,1-6.41,1.28,16.52,16.52,0,0,1-2.74-.23,16.66,16.66,0,0,0,18.53-1,16.9,16.9,0,0,0,4.51-5.12,17.77,17.77,0,0,0,1.18-2.54,16.75,16.75,0,0,0,1-5.72V278a1.48,1.48,0,0,0-1.48-1.48h-4.26v16.84Z"/><path class="cls-16" d="M75.39,312.22h29a2.24,2.24,0,0,0,2.23-2.23h0a2.25,2.25,0,0,0-2.23-2.24h-29A2.24,2.24,0,0,0,73.16,310h0A2.23,2.23,0,0,0,75.39,312.22Z"/><path class="cls-19" d="M78.52,279.71h0a2.84,2.84,0,0,1,2.83,2.82v10.11a2.84,2.84,0,0,1-2.83,2.82h0a2.83,2.83,0,0,1-2.82-2.82V282.53A2.83,2.83,0,0,1,78.52,279.71Z"/><path class="cls-8" d="M75.6,255.87H88.37a1.76,1.76,0,0,0,1.76-1.76h0a1.76,1.76,0,0,0-1.76-1.76H71.19a4.61,4.61,0,0,1-4.6-4.6h0a4.61,4.61,0,0,1,4.6-4.6h44.68a4.61,4.61,0,0,1,4.59,4.6h0a4.61,4.61,0,0,1-4.59,4.6H100.28a1.77,1.77,0,0,0-1.76,1.76h0a1.77,1.77,0,0,0,1.76,1.76h6a3.56,3.56,0,0,1,3.55,3.55h0a3.56,3.56,0,0,1-3.55,3.55H96.36a7.07,7.07,0,0,0-7,7v3.24a1.68,1.68,0,0,1-1.67,1.67h0A1.68,1.68,0,0,1,86,273.26v-6.15A4.15,4.15,0,0,0,81.84,263H75.6a3.56,3.56,0,0,1-3.55-3.55h0A3.56,3.56,0,0,1,75.6,255.87Z"/><path class="cls-20" d="M302.16,33.72H256.79a6,6,0,0,0-6,6V85.89a.67.67,0,0,0,1.14.48l10.21-10.21h40a6,6,0,0,0,6-6V39.72A6,6,0,0,0,302.16,33.72Z"/><path class="cls-16" d="M300.84,32.13H255.47a6,6,0,0,0-6,6V84.3a.67.67,0,0,0,.41.62.64.64,0,0,0,.73-.15l10.21-10.21h40a6,6,0,0,0,6-6V38.12A6,6,0,0,0,300.84,32.13Z"/><path class="cls-8" d="M268.82,55.47a4.43,4.43,0,0,1-1.67,3.65,7.24,7.24,0,0,1-4.64,1.33,10.85,10.85,0,0,1-4.85-1V56.05a20.28,20.28,0,0,0,2.93,1.09,8.72,8.72,0,0,0,2.2.32,3.07,3.07,0,0,0,1.83-.46,1.55,1.55,0,0,0,.64-1.36,1.47,1.47,0,0,0-.28-.89,3,3,0,0,0-.83-.76,20.76,20.76,0,0,0-2.22-1.16,10.6,10.6,0,0,1-2.35-1.41,5.18,5.18,0,0,1-1.25-1.59,4.88,4.88,0,0,1,1.07-5.68,6.4,6.4,0,0,1,4.25-1.29,10.12,10.12,0,0,1,2.55.31,18,18,0,0,1,2.54.89l-1.18,2.82a18.16,18.16,0,0,0-2.26-.78,7.25,7.25,0,0,0-1.76-.22,2.36,2.36,0,0,0-1.59.48,1.61,1.61,0,0,0-.55,1.25,1.55,1.55,0,0,0,.23.84,2.55,2.55,0,0,0,.7.69,23,23,0,0,0,2.31,1.2,9.14,9.14,0,0,1,3.29,2.3,4.51,4.51,0,0,1,.89,2.83Zm18.63-3.84a10.75,10.75,0,0,1-1.07,5.07,6.51,6.51,0,0,1-3.14,3l4.12,4.6h-4.65l-3.13-3.84h-.28a7.83,7.83,0,0,1-6-2.28q-2.1-2.28-2.1-6.56c0-2.84.7-5,2.11-6.52a7.88,7.88,0,0,1,6.06-2.26,7.79,7.79,0,0,1,6,2.27c1.4,1.52,2.09,3.69,2.09,6.53Zm-12.49,0A7.21,7.21,0,0,0,276.05,56a3.83,3.83,0,0,0,3.25,1.45q4.35,0,4.35-5.78t-4.32-5.78a3.85,3.85,0,0,0-3.27,1.46,7.13,7.13,0,0,0-1.1,4.32Zm16,8.58V43.1h3.62V57.22h6.95v3Z"/><path class="cls-8" d="M135.74,163.45a2.49,2.49,0,1,0-2.48-2.48A2.49,2.49,0,0,0,135.74,163.45Z"/><path class="cls-8" d="M299,192.15a2.49,2.49,0,1,0-2.49-2.48A2.49,2.49,0,0,0,299,192.15Z"/><path class="cls-8" d="M232,5a2.49,2.49,0,1,0-2.48-2.48A2.49,2.49,0,0,0,232,5Z"/><path class="cls-8" d="M36.82,280.28a2.49,2.49,0,1,0-2.49-2.49A2.49,2.49,0,0,0,36.82,280.28Z"/><path class="cls-8" d="M114,62.51A2.49,2.49,0,1,0,111.54,60,2.5,2.5,0,0,0,114,62.51Z"/><path class="cls-8" d="M132.23,4.34a1.13,1.13,0,1,0-1.13-1.13A1.13,1.13,0,0,0,132.23,4.34Z"/><path class="cls-8" d="M162.09,88.1A1.13,1.13,0,1,0,161,87,1.14,1.14,0,0,0,162.09,88.1Z"/><path class="cls-8" d="M236.38,40a1.13,1.13,0,1,0-1.13-1.13A1.14,1.14,0,0,0,236.38,40Z"/><path class="cls-8" d="M268.43,160.21a1.13,1.13,0,1,0-1.13-1.13A1.14,1.14,0,0,0,268.43,160.21Z"/><path class="cls-8" d="M350.73,80.82a1.13,1.13,0,1,0-1.13-1.13A1.14,1.14,0,0,0,350.73,80.82Z"/><path class="cls-8" d="M145.34,133.26a1.13,1.13,0,1,0-1.13-1.13A1.14,1.14,0,0,0,145.34,133.26Z"/><path class="cls-8" d="M85.62,217a1.13,1.13,0,1,0,0-2.26,1.13,1.13,0,0,0,0,2.26Z"/><path class="cls-8" d="M9.14,279.65A1.13,1.13,0,1,0,8,278.52,1.13,1.13,0,0,0,9.14,279.65Z"/><path class="cls-8" d="M352.18,211.19a1.13,1.13,0,1,0-1.13-1.13A1.13,1.13,0,0,0,352.18,211.19Z"/><path class="cls-8" d="M371.85,313.88a1.13,1.13,0,1,0-1.13-1.13A1.13,1.13,0,0,0,371.85,313.88Z"/><path class="cls-8" d="M1.13,139.81A1.13,1.13,0,1,0,0,138.68,1.13,1.13,0,0,0,1.13,139.81Z"/><path class="cls-8" d="M73.23,74.26a1.13,1.13,0,0,0,0-2.26,1.13,1.13,0,1,0,0,2.26Z"/><path class="cls-8" d="M196.32,5.8a1.13,1.13,0,1,0-1.13-1.13A1.14,1.14,0,0,0,196.32,5.8Z"/><path class="cls-8" d="M272.8,18.18a1.13,1.13,0,1,0-1.13-1.13A1.14,1.14,0,0,0,272.8,18.18Z"/><path class="cls-8" d="M130.62,121.61c-2.32,7.15-4.55,16.14-6.22,20.75-12.87,35.42-8.92,37.09,18.88,35,11.17-.84,22-.88,43.1-4.08,3.05-.44,1.58,1.08,3.13,2.57s-11.85,12-11.85,12L152.8,214c-19.06-2-46.78-7.83-59-16.61-18.7-15.93,8.5-60.51,17.88-82.46.76-1.78,5.89-.46,6.38-1.92C120.88,114.11,132.08,117.12,130.62,121.61Z"/><path class="cls-21" d="M138.06,114.87a17.17,17.17,0,0,1,8.77-3.09c1.86-.07,0-7-6.16-4,0,0-3.26.25-3.65-1.12s11.36-16.32,12.64-18a2.18,2.18,0,0,0-1.2-3.44c-.86,0-2.7,2.36-5.22,5.23s-5.41,6.06-5.9,6.11-1.13-.56-.36-2.67,5.47-13.58,5.13-14.7-2.43-1.68-3.65-.17-5.52,13.27-6.54,14.6-2.17.12-2.08-1.05,3-14.58,2.68-15.64-2.43-1.55-3.29.34-4.13,14.61-4.83,15.27-2.11.31-2.6-2.24-.88-8-1.42-8.52-2.95.44-2.94,3.13-.17,9.37-.33,10.35c-.8,5.21-3,9.69-3,13.84a10,10,0,0,0,1,4.47,14.42,14.42,0,0,0,8.72,7.4C130.32,122.8,133.14,118.36,138.06,114.87Z"/><path class="cls-22" d="M138.06,114.87a17.17,17.17,0,0,1,8.77-3.09c.63,0,.84-.86.59-1.82-1-.38-5.9.78-10.42,2.82-6.61,3-14,6.49-19.68-1.47-1.48-2.06-2-7.83-1.55-10.32a33.57,33.57,0,0,0-1.71,8.11,10.13,10.13,0,0,0,1,4.47c-3.39,5.18,3.92,10,10,10.11,2.37,0,2.23-1.91,4.68-2.88C132.68,119.66,135,117.07,138.06,114.87Z"/><path class="cls-1" d="M254.86,181s5.08,2.39,10.73,9c4,4.72,23.92,39.14,30.85,72.14,1.51,7.22-9.26,36.37-28.7,50.14L285.1,316c-1.65-3.43-39.34-2.2-41.83-7.58-7.21-15.57,19.28-41.33,19.28-41.33Z"/><path class="cls-8" d="M208.08,168.6c10.13,2.69,40.51,10.84,42.17,12.55,2,2.07,11.06,51.48,11.08,56.31,0,4.46-10.44,65.68-12.14,82.39H160.4c-1.71-16.71-12.16-77.93-12.14-82.39,0-4.83,9.24-54.42,11.07-56.31s18.87-5.25,29-7.94L201.11,190h1.81l1.87,3.27,1.88-3.27h1.81Z"/><path class="cls-1" d="M150.27,254.12c-1.5-8.85-2.54-15.32-2.53-16.66,0-2.76,3.34-20.14,6.57-34.89,2.37,1.28,1,8.15,1.31,19C155.79,227.79,153.11,241.53,150.27,254.12Z"/><path class="cls-1" d="M208.42,168.6c11.19,2.69,44.73,10.84,46.57,12.55,2.21,2.07,12.21,51.48,12.24,56.31,0,1.6-1.48,10.55-3.48,22.14C246.6,264,232.6,267,232.6,267s28.23-32.41,25.78-46.65-4.2-27.46-6.56-28.91-17.39-6.83-21.85-7.92-5.1,2.18-5.1,2.18S221.59,197,221,199.19s-1.68,3.23-3,2.6-8.33-6.06-8.78-5.78-3.38,5.46-3.38,5.46L203.76,199,202,194.5s-7.87,6.29-9.1,7.2a2.2,2.2,0,0,1-3.41-.82c-.37-1.28-3.84-17.83-3.84-17.83l2.48-11.28c5.27-1.3,10-2.44,13-3.17L200.72,190h2l2.06,3.27,2.07-3.27h2Z"/><path class="cls-23" d="M203.76,191.61l1,1.63,1-1.63v30.53a1,1,0,0,1-2.07,0Z"/><path class="cls-24" d="M204.25,133.45h.28c8.15-.12,14.89,8.46,15,19.07l.2,22.66c.06,6.84-2.65,12.91-6.77,16.4V190h-6.1l-2.06,3.26-2-3.26h-5v2.51c-4.67-3.2-7.89-9.55-8-16.86l-.2-22.67C189.52,142.35,196.1,133.57,204.25,133.45Z"/><path class="cls-25" d="M204.18,129.69a10.07,10.07,0,0,0-2.12-5.32L186.33,137a10,10,0,0,0,4.72,3.23l13.13-10.5ZM201,123.25,185.46,135.7a9.85,9.85,0,0,1-1.08-2.64l14.31-11.45A10.37,10.37,0,0,1,201,123.25Z"/><path class="cls-26" d="M161.92,120.36l-5.76,2.92c-5,16.33,7.16,44.92,30.4,34.7,9.22-4-7.95-38.24-7.95-38.24Z"/><path class="cls-14" d="M155.15,128.9c-1,13.07,6.38,29.57,19.9,31.12C179.65,140.37,162.5,131.67,155.15,128.9Z"/><path class="cls-26" d="M241.43,88.83c10.76,9.11,26.73,39.86,10.37,50.27-5.31,3.38-9.26,8.14-18.35,4.06s-8.3-52.44-8.3-52.44S236,86.08,241.43,88.83Z"/><path class="cls-27" d="M254.94,181c.16.11.57.41,1.18.92,2.7,7.81,5.39,20.42,6.81,40.72a.55.55,0,0,1-.38.62c-.22,0-.42-.21-.44-.52C260.61,201.18,257.71,188.47,254.94,181Z"/><path class="cls-1" d="M171.83,175.73c-9,7.14-13.22,19.71-19,38.3l-.83-.11c5.65-18.2,9.38-30.69,18.39-38.06Z"/><path class="cls-24" d="M177.25,117.2c-.24,0-.48,0-.71,0h0a9.54,9.54,0,1,0,7.54,3.21c-.23,2.82-1.25,6.18-4.85,5.93l1-5.41A3.27,3.27,0,0,0,177.25,117.2Z"/><path class="cls-24" d="M245.17,128.58l.67.23h0a9.55,9.55,0,1,1-8.17.58c-.7,2.74-.84,6.25,2.65,7.19l.81-5.44A3.27,3.27,0,0,1,245.17,128.58Z"/><path class="cls-21" d="M219.08,75.88h0a32.76,32.76,0,0,0-37.61,26.82L176.55,132a32.78,32.78,0,0,0,26.83,37.62h0A32.76,32.76,0,0,0,241,142.8l4.91-29.3A32.77,32.77,0,0,0,219.08,75.88Z"/><path class="cls-28" d="M219.08,75.88h0a32.76,32.76,0,0,0-37.61,26.82L176.55,132c-.11.69-.2,1.37-.27,2.06,19.24,1.39,38.24-8,41.82-31.11,0,0,7.69,1.17,9.61,1.67s9.14,6.39,8.35,15.62-3.17,26.64-8.77,35.08-14.58,14.6-29.46,12.86a33.72,33.72,0,0,0,5.55,1.44h0A32.76,32.76,0,0,0,241,142.8l4.91-29.3A32.77,32.77,0,0,0,219.08,75.88Z"/><path class="cls-26" d="M235.12,101s-1.82,13.05,6.43,18.22c0,0-1.12,6.65-1.44,8.59s.3,5.13,2.48,5.49l.77-4.6,3.1-4,2-21.35L241,89l-6.47-1.5S235.13,101.18,235.12,101Z"/><path class="cls-26" d="M239,90.13l-6.69,7.7S221.59,97.4,217.7,96s7.89-24.27,7.89-24.27,7.26.84,7.84,1.31S235,81.74,235,81.74Z"/><path class="cls-25" d="M232,127.77,216.9,139.89a10.27,10.27,0,0,1-.74-2.92l13.2-10.56a10.25,10.25,0,0,1,2.68,1.36Zm3.94,5.82a10.11,10.11,0,0,0-2.75-4.82l-15.61,12.5a10.09,10.09,0,0,0,4.09,3.73Z"/><path class="cls-24" d="M226.76,140.8a4.23,4.23,0,1,0,3.38,4.93A4.23,4.23,0,0,0,226.76,140.8Z"/><path class="cls-24" d="M191,134.11a4.23,4.23,0,1,0,3.38,4.93A4.23,4.23,0,0,0,191,134.11Z"/><path class="cls-26" d="M192,117.4a8.46,8.46,0,0,1,7.83,1.27,1,1,0,1,0,1.36-1.59,10.56,10.56,0,0,0-9.8-1.68,1,1,0,0,0,.61,2Z"/><path class="cls-26" d="M190.88,129.54a3.08,3.08,0,0,1,3.54-2.52,3.08,3.08,0,0,1,2,1.24,3.12,3.12,0,0,1,.53,2.29,1,1,0,0,0,2.07.35,5.17,5.17,0,0,0-4.25-6,5.18,5.18,0,0,0-5.95,4.24,1,1,0,0,0,2.07.35Z"/><path class="cls-26" d="M229.6,136a1,1,0,0,0,.86,1.2,1.05,1.05,0,0,0,1.21-.86,5.17,5.17,0,0,0-10.2-1.7,1,1,0,0,0,2.07.34,3.07,3.07,0,0,1,6.06,1Z"/><path class="cls-26" d="M232.53,124.19a1,1,0,1,0,1.22-1.69,10.58,10.58,0,0,0-9.81-1.6,1,1,0,1,0,.77,1.94A8.48,8.48,0,0,1,232.53,124.19Z"/><path class="cls-28" d="M236.62,306.08s5.08-3.4,7.82-5.05a7.2,7.2,0,0,1,7.36.08,116.54,116.54,0,0,1,10.48,8.38c1.17,1.24-5.63,4-6.34,4S236.62,306.08,236.62,306.08Z"/><path class="cls-14" d="M122.28,317.85H286.69a4.6,4.6,0,0,0,4.6-4.59h0a4.6,4.6,0,0,0-4.6-4.59H122.28a4.61,4.61,0,0,0-4.59,4.59h0A4.61,4.61,0,0,0,122.28,317.85Z"/><path class="cls-26" d="M216.79,147.26a9.13,9.13,0,0,1-18-3.35h0a1.58,1.58,0,0,1,1.84-1.26l14.82,2.77a1.58,1.58,0,0,1,1.26,1.84Z"/><path class="cls-29" d="M212.14,153.63a9.12,9.12,0,0,1-6,.93,9,9,0,0,1-4.49-2.24,6.12,6.12,0,0,1,10.5,1.31Z"/><path class="cls-8" d="M201.19,142.74l13.93,2.61c-.07,1.58-1.07,3-2.17,3.15-1.34.17-11.37-2-11.94-2.9A5.43,5.43,0,0,1,201.19,142.74Z"/><path class="cls-30" d="M206.32,137.34s-1.61,2-1.43,3.32,2,.92,2.35-.11a8.84,8.84,0,0,0,.09-3.37C207.25,136.93,206.73,136.75,206.32,137.34Z"/><path class="cls-26" d="M196,119.63A11,11,0,0,1,205.15,130a24,24,0,0,1,10.94,1.81A11,11,0,0,1,237,133l4.71-2.36a.92.92,0,0,1,.82,1.64l-5.2,2.6a11.18,11.18,0,0,1-.12,2.76,11,11,0,1,1-21.7-3.63l.09-.5a21.94,21.94,0,0,0-10.47-1.75c0,.16,0,.33-.07.49A11,11,0,1,1,184.13,126l-4-4.1a.91.91,0,0,1,1.3-1.27l3.64,3.71A11,11,0,0,1,196,119.63Zm37.8,10.91a9.18,9.18,0,1,0,1.57,6.84,9.18,9.18,0,0,0-1.57-6.84Zm-32.15-5.39A9.19,9.19,0,1,0,203.2,132,9.14,9.14,0,0,0,201.63,125.15Z"/><path class="cls-14" d="M232.27,97.83c2.42-14.15-8.94-17.73-12.73-4.17-5.83,20.83-15.64,48.37-54.37,33.6l-9-4c9.76-27.53,37.27-56.56,67.74-57.64,9.35-.33,20.38,14.74,21.12,17.14S244.5,93,243.67,94.12c0,0-7.71,7.17-8.55,6.84S232.27,97.83,232.27,97.83Z"/><path class="cls-13" d="M162,110.41a101.07,101.07,0,0,1,7.95-12.28c13.45,12.1,45,3.46,46.32-31.62,1.21-.23,2.43-.42,3.66-.56C216,101,192.69,122.76,162,110.41Z"/><path class="cls-26" d="M218.24,98.11c-6.05,20-17.05,42.89-53.07,29.15l-9-4c.94-2.65,2.05-5.31,3.3-8C169.91,120.75,198.59,131.45,218.24,98.11Z"/><path class="cls-14" d="M283.68,220.44H125.3a3.61,3.61,0,0,0-3.64,4.29l12.1,80.39a5.19,5.19,0,0,0,4.93,4.29H270.28a5.17,5.17,0,0,0,4.93-4.29l12.11-80.39A3.61,3.61,0,0,0,283.68,220.44Z"/><path class="cls-8" d="M219.61,171.32s-3.27,7.84-4.37,9.83-8.38,8.82-8.38,8.82-.23.59,0,.91S218,200.16,218,200.16s.91.64,1.6-.77,4-13.34,4.32-16.34-1.37-12.29-1.37-12.29l-2.84-1.6Z"/><path class="cls-8" d="M190,171.32s3.27,7.84,4.37,9.83,8.38,8.82,8.38,8.82.22.59,0,.91-11.15,9.28-11.15,9.28-.91.64-1.6-.77-4-13.34-4.32-16.34.86-10.84.86-10.84l3.35-3.05Z"/><path class="cls-14" d="M247.11,95.05c-7.72,10.11-3.81,32.25,11.36,33.84C260.37,118.35,253.94,104.11,247.11,95.05Z"/><path class="cls-31" d="M280.16,224.24H128.82a3.45,3.45,0,0,0-3.48,4.1l11.57,76.82a5,5,0,0,0,4.71,4.09H267.36a5,5,0,0,0,4.71-4.09l11.56-76.82A3.45,3.45,0,0,0,280.16,224.24Z"/><path class="cls-14" d="M133.94,285.46l3,19.7a5,5,0,0,0,4.71,4.09H267.36a5,5,0,0,0,4.71-4.09l11.56-76.82a3.44,3.44,0,0,0-2.23-3.89C264.07,254.33,221.5,303.28,133.94,285.46Z"/><path class="cls-14" d="M204.49,288.83c9.27,0,16.83-6.32,16.83-14.05s-7.56-14-16.83-14-16.84,6.31-16.84,14S195.22,288.83,204.49,288.83Z"/><path class="cls-8" d="M204.49,264.1a13.4,13.4,0,0,1,11,5.29L196,282.73a10,10,0,0,1-4.26-8c0-5.9,5.72-10.68,12.79-10.68ZM214.88,281,209,277.77l-9.8,6.73a14.93,14.93,0,0,0,5.29.95A13.67,13.67,0,0,0,214.88,281Z"/><path class="cls-1" d="M155.06,198.39a141,141,0,0,1-26.22,1.4c-26.35-.72-41.37-7.71-39.89-30.31-2.7,11.59-2.25,21.85,4.89,27.94,12,8.64,39,14.45,58.07,16.52.44-2.17.9-4.38,1.37-6.56C153.87,204.3,154.47,201.26,155.06,198.39Z"/><path class="cls-14" d="M73.74,321.51H335.89a6,6,0,0,1,6,6h0a6,6,0,0,1-6,6H73.74a6,6,0,0,1-6-6h0A6,6,0,0,1,73.74,321.51Z"/><path class="cls-32" d="M61,312.22H348.64a7.65,7.65,0,0,1,7.63,7.63h0a7.65,7.65,0,0,1-7.63,7.64H61a7.65,7.65,0,0,1-7.63-7.64h0A7.65,7.65,0,0,1,61,312.22Z"/><rect class="cls-33" x="235.34" y="312.22" width="15.89" height="15.27"/><rect class="cls-33" x="259.49" y="312.22" width="8.25" height="15.27"/><rect class="cls-33" x="276.41" y="312.22" width="4.13" height="15.27"/><rect class="cls-33" x="294.67" y="312.22" width="17.78" height="15.27"/><rect class="cls-33" x="325.85" y="312.22" width="8.89" height="15.27"/><path class="cls-34" d="M61.61,314.7h139.8a4.55,4.55,0,0,1,4.54,4.54h0a4.55,4.55,0,0,1-4.54,4.54H61.61a4.56,4.56,0,0,1-4.54-4.54h0A4.56,4.56,0,0,1,61.61,314.7Z"/></g></g></svg>